Coordinates
version=1
nRows=16
nColumns=40
inDegrees=yes

Units are S.I. units (second, meters, Newtons, ...)
Angles are in degrees.

endheader
time	pelvis_tilt	pelvis_list	pelvis_rotation	pelvis_tx	pelvis_ty	pelvis_tz	hip_flexion_r	hip_adduction_r	hip_rotation_r	knee_angle_r	knee_angle_r_beta	ankle_angle_r	subtalar_angle_r	mtp_angle_r	hip_flexion_l	hip_adduction_l	hip_rotation_l	knee_angle_l	knee_angle_l_beta	ankle_angle_l	subtalar_angle_l	mtp_angle_l	lumbar_extension	lumbar_bending	lumbar_rotation	arm_flex_r	arm_add_r	arm_rot_r	elbow_flex_r	pro_sup_r	wrist_flex_r	wrist_dev_r	arm_flex_l	arm_add_l	arm_rot_l	elbow_flex_l	pro_sup_l	wrist_flex_l	wrist_dev_l
     57.18250000	     -5.19332274	     -4.98857052	     -1.91947352	      1.07561559	      0.92217196	      0.49740320	     22.53134410	      2.37324401	    -13.71269664	     20.57997890	     20.57997890	      5.61278975	     -1.39906066	     -1.86899642	     10.94212343	    -11.69568334	     -5.75349274	     43.69500940	     43.69500940	     11.20245219	    -17.06392802	     -6.05711146	    -10.31579672	      5.26668606	      1.92093651	     -9.04839189	    -12.26127470	     -2.63032422	     27.49450584	     45.85020193	      0.00000000	      0.00000000	     21.56213445	    -19.06728844	     -0.14342727	     96.93457118	     48.18516004	      0.00000000	      0.00000000
     57.19428571	     -5.15680449	     -5.18544261	     -1.57150860	      1.07582480	      0.92289997	      0.49957070	     21.82596577	      2.63611295	    -14.14876244	     20.34371505	     20.34371505	      6.07522740	     -1.13313392	     -1.95731435	     12.97689879	    -12.30492217	     -4.65264044	     47.56550967	     47.56550967	      9.40712933	    -17.65095629	     -5.68332238	    -10.46601914	      5.40120073	      1.94202639	     -7.30697566	    -12.19933263	     -2.38056232	     28.13273265	     45.82240536	      0.00000000	      0.00000000	     20.75216403	    -18.51312564	      0.08451460	     95.76520369	     48.14679261	      0.00000000	      0.00000000
     57.20607143	     -5.28309660	     -5.24316059	     -1.17211212	      1.07576909	      0.92335788	      0.50126888	     21.30501128	      2.69672206	    -14.70143029	     20.09854677	     20.09854677	      6.61265946	     -0.63523602	     -1.89023545	     15.49890977	    -12.47917589	     -3.15432511	     51.77163659	     51.77163659	      9.52716802	    -17.56344504	     -0.25552027	    -10.31216452	      5.47485645	      1.70785471	     -5.82525984	    -12.84332021	      1.92507252	     29.55262216	     45.56837045	      0.00000000	      0.00000000	     19.96243592	    -17.87381733	     -0.19352215	     93.18916469	     48.20130436	      0.00000000	      0.00000000
     57.21785714	     -5.34496662	     -5.38037427	     -0.79842374	      1.07564519	      0.92376871	      0.50293607	     20.71115349	      2.90175252	    -15.05414862	     19.80393784	     19.80393784	      6.97502060	     -0.49835981	     -2.05629536	     17.76616808	    -12.80539458	     -1.97699746	     55.29439598	     55.29439598	      8.08662123	    -17.94122517	      0.65549097	    -10.34147013	      5.60584870	      1.66439820	     -4.01234811	    -12.85768123	      1.88987052	     30.29484550	     45.56331866	      0.00000000	      0.00000000	     19.06496361	    -17.44106532	      0.17916158	     91.36119167	     48.14289512	      0.00000000	      0.00000000
     57.22964286	     -5.34809798	     -5.42659368	     -0.40270835	      1.07544203	      0.92424354	      0.50431238	     20.09048567	      2.99245023	    -15.37273290	     19.55882438	     19.55882438	      7.24677021	     -0.43303074	     -2.47311715	     20.08201528	    -12.81766015	     -0.65357502	     58.76540929	     58.76540929	      8.07729184	    -17.95694298	      4.80699462	    -10.41999582	      5.65985888	      2.21424115	     -2.53238629	    -12.99764365	      1.74333630	     31.10505273	     45.57753718	      0.00000000	      0.00000000	     18.91570147	    -16.42078730	      0.78820099	     88.17977383	     48.06019727	      0.00000000	      0.00000000
     57.24142857	     -5.35190510	     -5.53510772	     -0.01808176	      1.07521218	      0.92463557	      0.50561889	     19.47178236	      3.17320666	    -15.60425499	     19.30874556	     19.30874556	      7.61191375	     -0.45832994	     -2.58186416	     22.25527220	    -12.97999718	      0.37518832	     61.62440423	     61.62440423	      7.07173510	    -18.20538228	      5.30861527	    -10.53869826	      5.76955978	      2.13401328	     -0.60899267	    -13.09987368	      1.57127552	     31.98068219	     45.57205109	      0.00000000	      0.00000000	     17.83388369	    -16.14964563	      1.30501463	     86.61223455	     47.99408139	      0.00000000	      0.00000000
     57.25321429	     -5.31171794	     -5.44787060	      0.31890026	      1.07497631	      0.92528048	      0.50665276	     18.80799465	      3.16095955	    -15.67124428	     19.05104341	     19.05104341	      7.87981628	     -0.56305413	     -2.77773032	     24.31322943	    -12.81866984	      1.26091849	     64.12462507	     64.12462507	      6.93588119	    -18.35153541	      7.36996769	    -10.64298893	      5.68488305	      2.14520640	      1.37014321	    -13.16374236	      1.29459501	     32.94022611	     45.57554028	      0.00000000	      0.00000000	     17.26432483	    -15.64619485	      1.77492161	     83.02072476	     47.90039188	      0.00000000	      0.00000000
     57.26500000	     -5.27017875	     -5.36404483	      0.65438661	      1.07471346	      0.92594691	      0.50754173	     18.14385712	      3.14310250	    -15.77637588	     18.79713691	     18.79713691	      8.14968820	     -0.64895755	     -3.08074143	     26.35647013	    -12.60950854	      2.06029648	     66.27509307	     66.27509307	      7.43793860	    -18.38066279	     10.38255496	    -10.79195744	      5.61150388	      3.00592891	      2.86298195	    -13.43260279	      0.68501167	     33.88737840	     45.60435286	      0.00000000	      0.00000000	     17.27066260	    -14.58142760	      2.78212541	     79.18348111	     47.77543299	      0.00000000	      0.00000000
     57.27678571	     -5.21883374	     -5.28188989	      1.00969306	      1.07449617	      0.92664860	      0.50825008	     17.43685076	      3.13004683	    -15.87772810	     18.49552384	     18.49552384	      8.48817622	     -0.72155887	     -3.12807195	     28.23048934	    -12.46788780	      2.61581845	     67.80524542	     67.80524542	      7.24792219	    -18.61416097	     10.62464978	    -10.98408130	      5.54286111	      2.85190580	      5.04683114	    -13.52633752	      0.45056744	     34.91867782	     45.59639515	      0.00000000	      0.00000000	     16.03877579	    -14.40831490	      3.29247473	     77.10283748	     47.69900606	      0.00000000	      0.00000000
     57.28857143	     -5.11093545	     -5.04448759	      1.31333028	      1.07424935	      0.92764325	      0.50882304	     16.67033658	      2.96323974	    -15.87455917	     18.19033747	     18.19033747	      8.71386418	     -0.80552061	     -3.22383744	     29.93860913	    -12.12502563	      2.97694271	     68.89256994	     68.89256994	      7.76271049	    -18.71546948	     12.35225601	    -11.18970777	      5.29297299	      3.46924609	      6.93233686	    -13.79355939	      0.17592024	     35.72288911	     45.60475787	      0.00000000	      0.00000000	     16.05815215	    -13.35535943	      3.82943271	     72.20444322	     47.58415232	      0.00000000	      0.00000000
     57.30035714	     -5.01710054	     -4.80036592	      1.58069949	      1.07393546	      0.92849819	      0.50935173	     15.95038796	      2.78535222	    -15.85753971	     17.94921814	     17.94921814	      9.06877482	     -0.85047993	     -3.26257545	     31.51505327	    -11.87908399	      3.07056049	     69.43658585	     69.43658585	      7.86985475	    -18.89509370	     12.32296785	    -11.54128237	      4.97101830	      3.90216427	      9.01039625	    -14.14496514	      0.03056173	     36.55588657	     45.59622351	      0.00000000	      0.00000000	     14.77195826	    -12.79450812	      4.29852033	     71.14255783	     47.52567210	      0.00000000	      0.00000000
     57.31214286	     -4.99576790	     -4.68262877	      2.02161060	      1.07352244	      0.92935461	      0.50961275	     15.16555598	      2.74253359	    -16.01031311	     17.41347495	     17.41347495	      9.23940098	     -0.90394155	     -3.23136972	     33.22842368	    -11.58071244	      3.38562368	     69.67071779	     69.67071779	      8.61490911	    -18.96761533	     14.04947818	    -11.54263584	      4.93077504	      3.82185390	     11.20980987	    -14.25006208	      0.16340757	     37.78651763	     45.56376829	      0.00000000	      0.00000000	     14.83888969	    -12.19511517	      4.71009590	     64.60042437	     47.39168715	      0.00000000	      0.00000000
     57.32392857	     -4.99419084	     -4.59646819	      2.43261403	      1.07296811	      0.93003066	      0.50991085	     14.45064249	      2.73808309	    -16.15835102	     16.94598110	     16.94598110	      9.45340065	     -0.97101448	     -3.16880236	     34.81111681	    -11.38559959	      3.51689045	     69.38576971	     69.38576971	      8.94926081	    -19.04555140	     14.38851182	    -11.71253222	      4.83181737	      3.55583689	     13.57978634	    -14.28724535	      0.09362847	     39.15822313	     45.53252199	      0.00000000	      0.00000000	     13.53700000	    -12.13736942	      5.15995282	     62.13591530	     47.30953073	      0.00000000	      0.00000000
     57.33571429	     -5.00863853	     -4.55529178	      2.88060598	      1.07224313	      0.93057398	      0.51011580	     13.75155321	      2.78730327	    -16.32465598	     16.44782019	     16.44782019	      9.64668911	     -1.10513003	     -3.09989593	     36.32529842	    -11.17045642	      3.65317854	     68.70337789	     68.70337789	      9.34172707	    -19.12872970	     15.03996794	    -11.81715558	      4.78559903	      3.40951706	     15.91556293	    -14.40791972	      0.31228666	     40.51837484	     45.48688254	      0.00000000	      0.00000000	     12.65685048	    -11.83315792	      5.48737698	     58.58904502	     47.22349726	      0.00000000	      0.00000000
     57.34750000	     -5.11589491	     -4.55924103	      3.28780678	      1.07131210	      0.93087593	      0.51024175	     13.20956584	      2.87490318	    -16.43808402	     16.01730279	     16.01730279	      9.81307162	     -1.28543374	     -3.09198530	     37.83588410	    -10.98111583	      3.71288528	     67.66585972	     67.66585972	      9.97581920	    -19.14774302	     16.36918028	    -11.81798207	      4.79608394	      4.08793560	     17.68772941	    -15.30025204	      1.37207477	     42.08866700	     45.39314654	      0.00000000	      0.00000000	     12.85054456	    -10.69764944	      5.66645169	     53.09113707	     47.12288210	      0.00000000	      0.00000000
     57.35928571	     -5.23056898	     -4.64999491	      3.74927070	      1.07030743	      0.93097974	      0.51031607	     12.65098378	      3.05635550	    -16.64896791	     15.51628881	     15.51628881	      9.97987368	     -1.41020684	     -3.02258549	     39.21234638	    -10.82451111	      3.81436510	     66.21499379	     66.21499379	     10.18343025	    -19.19105468	     16.62576072	    -11.88378234	      4.88671081	      3.74503045	     20.08916736	    -15.36642112	      1.45942334	     43.70138178	     45.34565356	      0.00000000	      0.00000000	     11.38859545	    -10.70383889	      5.96662503	     50.97749909	     47.05184758	      0.00000000	      0.00000000
